G04 FPC10_PWM_20x30_V12 Top Copper*
%FSLAX36Y36*%
%MOMM*%
%LPD*%
%ADD10R,0.450000X2.300000*%
%ADD11R,2.800000X2.800000*%
%ADD12R,1.800000X1.800000*%
%ADD13C,1.800000*%
%ADD14R,1.000000X1.100000*%
%ADD15R,1.100000X1.200000*%
%ADD16R,0.800000X0.900000*%
%ADD17R,0.900000X0.800000*%
%ADD18C,0.800000*%
%ADD19C,0.700000*%
%ADD20C,0.300000*%
%ADD21C,0.600000*%
G01*
D10*
X005500000Y024800000D03*
D10*
X006500000Y024800000D03*
D10*
X007500000Y024800000D03*
D10*
X008500000Y024800000D03*
D10*
X009500000Y024800000D03*
D10*
X010500000Y024800000D03*
D10*
X011500000Y024800000D03*
D10*
X012500000Y024800000D03*
D10*
X013500000Y024800000D03*
D10*
X014500000Y024800000D03*
D11*
X003450000Y026000000D03*
D11*
X016550000Y026000000D03*
D12*
X004920000Y008400000D03*
D13*
X007460000Y008400000D03*
D13*
X010000000Y008400000D03*
D13*
X012540000Y008400000D03*
D13*
X015080000Y008400000D03*
D13*
X004920000Y005700000D03*
D13*
X007460000Y005700000D03*
D13*
X010000000Y005700000D03*
D13*
X012540000Y005700000D03*
D13*
X015080000Y005700000D03*
D12*
X017300000Y016000000D03*
D13*
X017300000Y013000000D03*
D14*
X009000000Y015300000D03*
D14*
X011000000Y015300000D03*
D15*
X010000000Y017300000D03*
D16*
X015300000Y016000000D03*
D16*
X013300000Y016000000D03*
D17*
X013300000Y013700000D03*
D17*
X013300000Y011700000D03*
D17*
X006500000Y020200000D03*
D17*
X006500000Y018200000D03*
D18*
X005500000Y021800000D03*
D18*
X008800000Y019000000D03*
D19*
X015800000Y020800000D03*
D19*
X015800000Y010600000D03*
D19*
X009500000Y023000000D03*
D19*
X019000000Y011000000D03*
D19*
X003450000Y024000000D03*
D19*
X007500000Y023000000D03*
D19*
X012300000Y014500000D03*
D19*
X012300000Y012800000D03*
D19*
X010500000Y023000000D03*
D19*
X011500000Y023000000D03*
D19*
X012500000Y023000000D03*
D19*
X013500000Y023000000D03*
D19*
X014500000Y023000000D03*
D20*
X010500000Y023650000D02*
X010500000Y023000000D01*
D20*
X011500000Y023650000D02*
X011500000Y023000000D01*
D20*
X012500000Y023650000D02*
X012500000Y023000000D01*
D20*
X013500000Y023650000D02*
X013500000Y023000000D01*
D20*
X014500000Y023650000D02*
X014500000Y023000000D01*
D21*
X005500000Y023650000D02*
X005500000Y009000000D01*
X004920000Y008400000D01*
D21*
X005500000Y023650000D02*
X005500000Y021800000D01*
D21*
X008800000Y019000000D02*
X010000000Y017300000D01*
D20*
X006500000Y023650000D02*
X006500000Y020200000D01*
D20*
X006500000Y018200000D02*
X006500000Y010200000D01*
X007460000Y009240000D01*
X007460000Y008400000D01*
D21*
X007500000Y023650000D02*
X007500000Y012000000D01*
X010000000Y011000000D01*
X010000000Y008400000D01*
D21*
X010000000Y011000000D02*
X010000000Y011700000D01*
X013300000Y011700000D01*
D20*
X011000000Y015300000D02*
X011550000Y014750000D01*
X012300000Y014500000D01*
D20*
X012300000Y012800000D02*
X012300000Y012700000D01*
X013300000Y011700000D01*
D21*
X013300000Y011700000D02*
X016000000Y011700000D01*
X017300000Y013000000D01*
D21*
X003450000Y026000000D02*
X003450000Y024000000D01*
D21*
X007500000Y023000000D02*
X007500000Y023650000D01*
D20*
X008500000Y023650000D02*
X008500000Y022200000D01*
X015200000Y022200000D01*
X015800000Y021600000D01*
X015800000Y020800000D01*
D20*
X015800000Y010600000D02*
X015200000Y010000000D01*
X013200000Y010000000D01*
X012540000Y009340000D01*
X012540000Y008400000D01*
D20*
X009500000Y023650000D02*
X009500000Y023000000D01*
D20*
X019000000Y011000000D02*
X019000000Y009400000D01*
X016000000Y009400000D01*
X015080000Y008480000D01*
X015080000Y008400000D01*
D20*
X017300000Y016000000D02*
X015300000Y016000000D01*
D20*
X009000000Y015300000D02*
X009000000Y013700000D01*
X013300000Y013700000D01*
D20*
X013300000Y016000000D02*
X013300000Y013700000D01*
M02*
