M48
; PTH drill for FPC10_PWM_20x30_V12
FMAT,2
METRIC,TZ
G90
T01C1.000
T02C0.300
%
G05
T01
X4.920Y8.400
X7.460Y8.400
X10.000Y8.400
X12.540Y8.400
X15.080Y8.400
X4.920Y5.700
X7.460Y5.700
X10.000Y5.700
X12.540Y5.700
X15.080Y5.700
X17.300Y16.000
X17.300Y13.000
T02
X5.500Y21.800
X8.800Y19.000
X15.800Y20.800
X15.800Y10.600
X9.500Y23.000
X19.000Y11.000
X3.450Y24.000
X7.500Y23.000
X12.300Y14.500
X12.300Y12.800
X10.500Y23.000
X11.500Y23.000
X12.500Y23.000
X13.500Y23.000
X14.500Y23.000
T00
M30
